# Reconstructed from TC4 4.2.3.5 TileRunicMatrixRenderer + ModelCube
# Original JAR contains infuser.png but no Runic Matrix OBJ.
mtllib runic_matrix.mtl
usemtl runic_matrix
o cube_0_0_0
v 0.025000 0.025000 0.025000
v 0.475000 0.025000 0.025000
v 0.475000 0.475000 0.025000
v 0.025000 0.475000 0.025000
v 0.025000 0.025000 0.475000
v 0.475000 0.025000 0.475000
v 0.475000 0.475000 0.475000
v 0.025000 0.475000 0.475000
vt 0.250000 0.500000
vt 0.500000 0.500000
vt 0.500000 0.750000
vt 0.250000 0.750000
vt 0.750000 0.500000
vt 1.000000 0.500000
vt 1.000000 0.750000
vt 0.750000 0.750000
vt 0.000000 0.500000
vt 0.250000 0.500000
vt 0.250000 0.750000
vt 0.000000 0.750000
vt 0.500000 0.500000
vt 0.750000 0.500000
vt 0.750000 0.750000
vt 0.500000 0.750000
vt 0.250000 0.750000
vt 0.500000 0.750000
vt 0.500000 1.000000
vt 0.250000 1.000000
vt 0.500000 0.750000
vt 0.750000 0.750000
vt 0.750000 1.000000
vt 0.500000 1.000000
f 1/1 4/2 3/3 2/4
f 6/5 7/6 8/7 5/8
f 5/9 8/10 4/11 1/12
f 2/13 3/14 7/15 6/16
f 4/17 8/18 7/19 3/20
f 5/21 1/22 2/23 6/24
o cube_0_0_1
v 0.475000 0.025000 0.525000
v 0.475000 0.475000 0.525000
v 0.025000 0.475000 0.525000
v 0.025000 0.025000 0.525000
v 0.475000 0.025000 0.975000
v 0.475000 0.475000 0.975000
v 0.025000 0.475000 0.975000
v 0.025000 0.025000 0.975000
vt 0.250000 0.500000
vt 0.500000 0.500000
vt 0.500000 0.750000
vt 0.250000 0.750000
vt 0.750000 0.500000
vt 1.000000 0.500000
vt 1.000000 0.750000
vt 0.750000 0.750000
vt 0.000000 0.500000
vt 0.250000 0.500000
vt 0.250000 0.750000
vt 0.000000 0.750000
vt 0.500000 0.500000
vt 0.750000 0.500000
vt 0.750000 0.750000
vt 0.500000 0.750000
vt 0.250000 0.750000
vt 0.500000 0.750000
vt 0.500000 1.000000
vt 0.250000 1.000000
vt 0.500000 0.750000
vt 0.750000 0.750000
vt 0.750000 1.000000
vt 0.500000 1.000000
f 9/25 12/26 11/27 10/28
f 14/29 15/30 16/31 13/32
f 13/33 16/34 12/35 9/36
f 10/37 11/38 15/39 14/40
f 12/41 16/42 15/43 11/44
f 13/45 9/46 10/47 14/48
o cube_0_1_0
v 0.025000 0.525000 0.475000
v 0.025000 0.525000 0.025000
v 0.025000 0.975000 0.025000
v 0.025000 0.975000 0.475000
v 0.475000 0.525000 0.475000
v 0.475000 0.525000 0.025000
v 0.475000 0.975000 0.025000
v 0.475000 0.975000 0.475000
vt 0.250000 0.500000
vt 0.500000 0.500000
vt 0.500000 0.750000
vt 0.250000 0.750000
vt 0.750000 0.500000
vt 1.000000 0.500000
vt 1.000000 0.750000
vt 0.750000 0.750000
vt 0.000000 0.500000
vt 0.250000 0.500000
vt 0.250000 0.750000
vt 0.000000 0.750000
vt 0.500000 0.500000
vt 0.750000 0.500000
vt 0.750000 0.750000
vt 0.500000 0.750000
vt 0.250000 0.750000
vt 0.500000 0.750000
vt 0.500000 1.000000
vt 0.250000 1.000000
vt 0.500000 0.750000
vt 0.750000 0.750000
vt 0.750000 1.000000
vt 0.500000 1.000000
f 17/49 20/50 19/51 18/52
f 22/53 23/54 24/55 21/56
f 21/57 24/58 20/59 17/60
f 18/61 19/62 23/63 22/64
f 20/65 24/66 23/67 19/68
f 21/69 17/70 18/71 22/72
o cube_0_1_1
v 0.025000 0.525000 0.525000
v 0.025000 0.975000 0.525000
v 0.025000 0.975000 0.975000
v 0.025000 0.525000 0.975000
v 0.475000 0.525000 0.525000
v 0.475000 0.975000 0.525000
v 0.475000 0.975000 0.975000
v 0.475000 0.525000 0.975000
vt 0.250000 0.500000
vt 0.500000 0.500000
vt 0.500000 0.750000
vt 0.250000 0.750000
vt 0.750000 0.500000
vt 1.000000 0.500000
vt 1.000000 0.750000
vt 0.750000 0.750000
vt 0.000000 0.500000
vt 0.250000 0.500000
vt 0.250000 0.750000
vt 0.000000 0.750000
vt 0.500000 0.500000
vt 0.750000 0.500000
vt 0.750000 0.750000
vt 0.500000 0.750000
vt 0.250000 0.750000
vt 0.500000 0.750000
vt 0.500000 1.000000
vt 0.250000 1.000000
vt 0.500000 0.750000
vt 0.750000 0.750000
vt 0.750000 1.000000
vt 0.500000 1.000000
f 25/73 28/74 27/75 26/76
f 30/77 31/78 32/79 29/80
f 29/81 32/82 28/83 25/84
f 26/85 27/86 31/87 30/88
f 28/89 32/90 31/91 27/92
f 29/93 25/94 26/95 30/96
o cube_1_0_0
v 0.525000 0.475000 0.025000
v 0.975000 0.475000 0.025000
v 0.975000 0.475000 0.475000
v 0.525000 0.475000 0.475000
v 0.525000 0.025000 0.025000
v 0.975000 0.025000 0.025000
v 0.975000 0.025000 0.475000
v 0.525000 0.025000 0.475000
vt 0.250000 0.500000
vt 0.500000 0.500000
vt 0.500000 0.750000
vt 0.250000 0.750000
vt 0.750000 0.500000
vt 1.000000 0.500000
vt 1.000000 0.750000
vt 0.750000 0.750000
vt 0.000000 0.500000
vt 0.250000 0.500000
vt 0.250000 0.750000
vt 0.000000 0.750000
vt 0.500000 0.500000
vt 0.750000 0.500000
vt 0.750000 0.750000
vt 0.500000 0.750000
vt 0.250000 0.750000
vt 0.500000 0.750000
vt 0.500000 1.000000
vt 0.250000 1.000000
vt 0.500000 0.750000
vt 0.750000 0.750000
vt 0.750000 1.000000
vt 0.500000 1.000000
f 33/97 36/98 35/99 34/100
f 38/101 39/102 40/103 37/104
f 37/105 40/106 36/107 33/108
f 34/109 35/110 39/111 38/112
f 36/113 40/114 39/115 35/116
f 37/117 33/118 34/119 38/120
o cube_1_0_1
v 0.975000 0.475000 0.525000
v 0.975000 0.475000 0.975000
v 0.525000 0.475000 0.975000
v 0.525000 0.475000 0.525000
v 0.975000 0.025000 0.525000
v 0.975000 0.025000 0.975000
v 0.525000 0.025000 0.975000
v 0.525000 0.025000 0.525000
vt 0.250000 0.500000
vt 0.500000 0.500000
vt 0.500000 0.750000
vt 0.250000 0.750000
vt 0.750000 0.500000
vt 1.000000 0.500000
vt 1.000000 0.750000
vt 0.750000 0.750000
vt 0.000000 0.500000
vt 0.250000 0.500000
vt 0.250000 0.750000
vt 0.000000 0.750000
vt 0.500000 0.500000
vt 0.750000 0.500000
vt 0.750000 0.750000
vt 0.500000 0.750000
vt 0.250000 0.750000
vt 0.500000 0.750000
vt 0.500000 1.000000
vt 0.250000 1.000000
vt 0.500000 0.750000
vt 0.750000 0.750000
vt 0.750000 1.000000
vt 0.500000 1.000000
f 41/121 44/122 43/123 42/124
f 46/125 47/126 48/127 45/128
f 45/129 48/130 44/131 41/132
f 42/133 43/134 47/135 46/136
f 44/137 48/138 47/139 43/140
f 45/141 41/142 42/143 46/144
o cube_1_1_0
v 0.525000 0.525000 0.025000
v 0.525000 0.975000 0.025000
v 0.525000 0.975000 0.475000
v 0.525000 0.525000 0.475000
v 0.975000 0.525000 0.025000
v 0.975000 0.975000 0.025000
v 0.975000 0.975000 0.475000
v 0.975000 0.525000 0.475000
vt 0.250000 0.500000
vt 0.500000 0.500000
vt 0.500000 0.750000
vt 0.250000 0.750000
vt 0.750000 0.500000
vt 1.000000 0.500000
vt 1.000000 0.750000
vt 0.750000 0.750000
vt 0.000000 0.500000
vt 0.250000 0.500000
vt 0.250000 0.750000
vt 0.000000 0.750000
vt 0.500000 0.500000
vt 0.750000 0.500000
vt 0.750000 0.750000
vt 0.500000 0.750000
vt 0.250000 0.750000
vt 0.500000 0.750000
vt 0.500000 1.000000
vt 0.250000 1.000000
vt 0.500000 0.750000
vt 0.750000 0.750000
vt 0.750000 1.000000
vt 0.500000 1.000000
f 49/145 52/146 51/147 50/148
f 54/149 55/150 56/151 53/152
f 53/153 56/154 52/155 49/156
f 50/157 51/158 55/159 54/160
f 52/161 56/162 55/163 51/164
f 53/165 49/166 50/167 54/168
o cube_1_1_1
v 0.525000 0.975000 0.525000
v 0.525000 0.975000 0.975000
v 0.525000 0.525000 0.975000
v 0.525000 0.525000 0.525000
v 0.975000 0.975000 0.525000
v 0.975000 0.975000 0.975000
v 0.975000 0.525000 0.975000
v 0.975000 0.525000 0.525000
vt 0.250000 0.500000
vt 0.500000 0.500000
vt 0.500000 0.750000
vt 0.250000 0.750000
vt 0.750000 0.500000
vt 1.000000 0.500000
vt 1.000000 0.750000
vt 0.750000 0.750000
vt 0.000000 0.500000
vt 0.250000 0.500000
vt 0.250000 0.750000
vt 0.000000 0.750000
vt 0.500000 0.500000
vt 0.750000 0.500000
vt 0.750000 0.750000
vt 0.500000 0.750000
vt 0.250000 0.750000
vt 0.500000 0.750000
vt 0.500000 1.000000
vt 0.250000 1.000000
vt 0.500000 0.750000
vt 0.750000 0.750000
vt 0.750000 1.000000
vt 0.500000 1.000000
f 57/169 60/170 59/171 58/172
f 62/173 63/174 64/175 61/176
f 61/177 64/178 60/179 57/180
f 58/181 59/182 63/183 62/184
f 60/185 64/186 63/187 59/188
f 61/189 57/190 58/191 62/192
